<?xml version="1.0" encoding="UTF-8"?><svg id="_レイヤー_2" xmlns="http://www.w3.org/2000/svg" viewBox="0 0 117.347 117.347"><g id="_レイヤー_1-2"><g><rect width="117.347" height="117.347" fill="none"/><path d="m102.9,89.64L61.497,17.928c-.706-1.222-1.765-1.834-2.823-1.834s-2.117.611-2.823,1.834L14.448,89.64c-.381.659-.541,1.314-.539,1.925.006,1.656,1.3,2.965,3.362,2.965h10.776c2.003,0,3.825-1.244,4.554-3.11l17.098-43.748c.716-1.834,2.185-1.523,2.097.444l-1.885,42.442c-.106,2.383,1.414,3.972,3.799,3.972h46.367c2.062,0,3.356-1.309,3.362-2.965.002-.611-.158-1.266-.539-1.925Z" fill="#fff"/></g></g></svg>